<?xml version="1.0" encoding="iso-8859-1"?>
<svg height="800" width="800" xmlns="http://www.w3.org/2000/svg" viewBox="0 0 512 512" xml:space="preserve">
  <path d="M256.002 0C157.617 0 77.576 80.041 77.576 178.424v258.584c0 41.351 33.641 74.992 74.991 74.992 20.038 0 38.251-7.916 51.716-20.765C217.749 504.084 235.962 512 256 512s38.251-7.916 51.717-20.765C321.184 504.084 339.395 512 359.435 512c41.349 0 74.989-33.641 74.989-74.992V178.424C434.424 80.041 354.384 0 256.002 0zm131.876 437.008c.002 15.686-12.76 28.447-28.444 28.447s-28.445-12.761-28.445-28.447c0-12.853-10.42-23.273-23.273-23.273s-23.273 10.42-23.273 23.273c0 15.686-12.76 28.447-28.444 28.447s-28.444-12.761-28.444-28.447c0-12.853-10.42-23.273-23.273-23.273s-23.273 10.42-23.273 23.273c0 15.686-12.76 28.447-28.444 28.447s-28.445-12.761-28.445-28.447V178.424c0-72.718 59.161-131.878 131.878-131.878s131.878 59.161 131.878 131.878v258.584z"/>
  <path d="M209.456 155.151h-15.515c-12.853 0-23.273 10.42-23.273 23.273s10.42 23.273 23.273 23.273h15.515c12.853 0 23.273-10.42 23.273-23.273s-10.42-23.273-23.273-23.273zM318.062 155.151h-15.515c-12.853 0-23.273 10.42-23.273 23.273s10.42 23.273 23.273 23.273h15.515c12.853 0 23.273-10.42 23.273-23.273s-10.42-23.273-23.273-23.273zM256.002 240.484c-12.853 0-23.273 10.42-23.273 23.273v15.515c0 12.853 10.42 23.273 23.273 23.273s23.273-10.42 23.273-23.273v-15.515c-.001-12.853-10.421-23.273-23.273-23.273z"/>
</svg>