<?xml version="1.0" encoding="iso-8859-1"?>
<svg height="800" width="800" xmlns="http://www.w3.org/2000/svg" viewBox="0 0 512 512" xml:space="preserve">
  <path d="M504.866 323.638a24.14 24.14 0 0 0-26.488-5.16c-26.922 11.402-55.473 17.185-84.861 17.185-58.031 0-112.586-22.597-153.619-63.63-62.919-62.92-81.148-156.527-46.442-238.475a24.145 24.145 0 0 0-31.65-31.646c-31.492 13.341-59.785 32.43-84.092 56.738-103.538 103.539-103.536 272.014.008 375.558C127.885 484.373 194.578 512 265.515 512c70.927 0 137.611-27.624 187.769-77.781 24.308-24.307 43.397-52.6 56.74-84.093a24.141 24.141 0 0 0-5.158-26.488zm-85.724 76.439c-41.037 41.037-95.596 63.638-153.627 63.638-58.04 0-112.607-22.604-153.651-63.649-84.718-84.716-84.721-222.559-.006-307.273a219.674 219.674 0 0 1 19.573-17.376c-4.941 30.18-4.637 61.147 1.041 91.716 9.815 52.833 35.156 100.914 73.284 139.043 50.152 50.152 116.834 77.773 187.761 77.773 14.524 0 28.883-1.157 43.014-3.459a219.959 219.959 0 0 1-17.389 19.587z"/>
</svg>